<?xml version="1.0" encoding="UTF-8" standalone="no"?>
<!-- Created with Inkscape (http://www.inkscape.org/) -->

<svg
   xmlns:dc="http://purl.org/dc/elements/1.1/"
   xmlns:cc="http://creativecommons.org/ns#"
   xmlns:rdf="http://www.w3.org/1999/02/22-rdf-syntax-ns#"
   xmlns:svg="http://www.w3.org/2000/svg"
   xmlns="http://www.w3.org/2000/svg"
   xmlns:sodipodi="http://sodipodi.sourceforge.net/DTD/sodipodi-0.dtd"
   xmlns:inkscape="http://www.inkscape.org/namespaces/inkscape"
   width="800px"
   height="250px"
   viewBox="0 0 800 250"
   version="1.1"
   id="SVGRoot"
   inkscape:version="0.92.3 (2405546, 2018-03-11)"
   sodipodi:docname="windmill_mask.svg">
  <sodipodi:namedview
     id="base"
     pagecolor="#ffffff"
     bordercolor="#666666"
     borderopacity="1.0"
     inkscape:pageopacity="0.0"
     inkscape:pageshadow="2"
     inkscape:zoom="1.72"
     inkscape:cx="400"
     inkscape:cy="224.95712"
     inkscape:document-units="px"
     inkscape:current-layer="layer1"
     showgrid="false"
     inkscape:window-width="1725"
     inkscape:window-height="869"
     inkscape:window-x="1444"
     inkscape:window-y="78"
     inkscape:window-maximized="0" />
  <defs
     id="defs3780" />
  <metadata
     id="metadata3783">
    <rdf:RDF>
      <cc:Work
         rdf:about="">
        <dc:format>image/svg+xml</dc:format>
        <dc:type
           rdf:resource="http://purl.org/dc/dcmitype/StillImage" />
        <dc:title />
      </cc:Work>
    </rdf:RDF>
  </metadata>
  <g
     id="layer1"
     inkscape:groupmode="layer"
     inkscape:label="Layer 1">
    <path
       style="fill:#000000;stroke-width:0.39838776"
       d="m 193.93951,248.94811 c -5.05295,-0.90919 -8.34617,-1.31501 -14.37651,-1.77166 -3.1848,-0.2412 -8.84555,-0.69624 -12.57946,-1.01121 -3.73391,-0.31498 -9.1251,-0.75976 -11.98043,-0.98841 -12.41513,-0.99425 -14.65401,-1.17497 -19.56802,-1.57964 -2.85536,-0.23514 -6.44949,-0.62606 -7.98696,-0.86873 -1.53749,-0.24266 -4.68235,-0.45968 -6.98858,-0.48231 l -4.19315,-0.0411 -0.10387,-18.45663 c -0.0579,-10.2917 0.052,-18.61172 0.24847,-18.80726 0.20355,-0.2026 3.02973,1.8717 6.69311,4.91248 3.48742,2.89473 6.43062,5.37291 6.54042,5.50707 0.10982,0.13415 0.72197,0.64316 1.36032,1.13114 0.63834,0.48797 2.23644,1.82313 3.55133,2.96704 5.43944,4.73199 5.09243,3.98424 -0.81833,-1.7634 -8.04217,-7.82021 -10.29763,-9.86567 -12.39285,-11.23892 -4.2108,-2.75982 -4.47763,-3.49894 -3.32251,-9.20368 1.10705,-5.4674 3.69105,-20.8993 3.52689,-21.06271 -0.0743,-0.0739 -0.51279,1.33588 -0.97443,3.13295 -0.4616,1.79707 -1.6778,6.37811 -2.70266,10.18011 -1.02933,3.81855 -1.76271,7.31189 -1.63848,7.80453 0.34468,1.36667 -0.38561,4.53763 -1.17782,5.11412 -0.38868,0.28283 -2.79123,1.17279 -5.33899,1.9777 -7.10766,2.24547 -23.380999,7.54968 -23.568077,7.68189 -1.033249,0.73022 5.94167,-0.87463 19.335087,-4.4488 2.1964,-0.58613 4.65062,-1.43163 5.45383,-1.8789 0.99138,-0.55205 1.79883,-0.72866 2.51436,-0.54993 1.01944,0.25463 1.04699,0.3378 0.83998,2.53631 -0.11774,1.25017 -0.48824,7.99604 -0.82336,14.99082 -0.83036,17.33289 -0.98336,19.26452 -1.53128,19.33469 -0.25482,0.0326 -5.31538,0.0889 -11.2457,0.12495 -9.426404,0.0574 -11.2846,0.17446 -14.775884,0.93088 -2.196396,0.4759 -5.88038,1.1404 -8.186612,1.47668 -13.782676,2.00973 -17.904001,2.31722 -26.556615,1.98132 -9.160621,-0.35563 -17.62804,-7.27919 -36.564902,-12.30769 L -2.3152504,231.96412 -3.7375769,82.270459 V -82.296669 H 404.79567 813.32892 l -0.10044,132.573756 -0.10045,132.573733 -4.39278,1.66978 c -2.41608,0.91838 -0.76585,17.61416 -1.97386,18.29828 -2.44002,1.38181 12.21397,12.32644 3.80536,16.63029 -3.07499,1.5739 3.11219,19.41362 -8.72093,12.20931 -4.20196,2.58234 -19.33702,-5.5395 -34.24998,-11.43766 0,0 -26.05087,-6.44852 -29.34549,-5.25372 -3.29461,1.19479 2.96515,-0.71394 0,0 -2.96515,0.71394 -7.36796,1.90404 -9.78399,2.64467 -2.41607,0.74061 -5.83049,1.62687 -7.58763,1.96948 -5.98243,1.16641 -9.9761,2.26174 -17.57127,4.81924 -14.90791,5.01989 -22.05711,7.158 -26.41799,7.90085 -1.94323,0.33101 -4.99674,1.04046 -6.78563,1.57654 -1.78892,0.53609 -4.21495,0.97842 -5.39119,0.98296 -2.39797,0.009 -10.06797,1.19977 -13.71975,2.12958 -1.31785,0.33554 -4.10329,0.98467 -6.1899,1.44255 -9.41098,2.06498 -15.09908,3.45594 -17.77096,4.34566 -1.40353,0.46738 -3.47992,0.80193 -5.01252,0.80766 l -2.61641,0.01 -0.49847,-15.40043 c -1.20293,-37.16392 -2.05096,-58.61245 -2.67532,-67.66248 -0.39087,-5.66553 -0.61627,-9.92753 -0.76726,-14.5062 -0.0793,-2.40445 -0.25018,-6.07074 -0.37977,-8.14732 -0.12961,-2.07657 -0.30443,-5.74286 -0.38857,-8.14731 -0.0841,-2.40446 -0.29243,-6.33901 -0.46292,-8.74347 -0.17048,-2.40444 -0.27543,-5.4895 -0.23319,-6.85567 0.0458,-1.48341 -0.0883,-2.48393 -0.33312,-2.48393 -0.22547,0 -0.40995,-0.44711 -0.40995,-0.99358 0,-0.54647 0.19034,-0.99357 0.42291,-0.99357 0.23264,0 0.30446,-0.19075 0.15971,-0.42388 -0.351,-0.56518 1.00584,-1.51936 1.91318,-1.34545 0.45125,0.0865 0.61729,-0.0279 0.44447,-0.30614 -0.17952,-0.28911 -0.0439,-0.35558 0.38871,-0.19041 0.38436,0.1468 0.66449,0.0595 0.66449,-0.20714 0,-0.2535 0.25363,-0.11573 0.56362,0.30617 0.31,0.42189 0.48676,0.89082 0.39285,1.04207 -0.19071,0.30708 0.62267,0.91057 1.23997,0.91998 0.21963,0.003 0.40751,0.27435 0.41751,0.60223 0.01,0.32788 0.24794,0.547 0.52885,0.48694 0.28091,-0.0601 0.41955,0.0376 0.30817,0.21691 -0.27178,0.43769 4.55052,5.09481 5.10121,4.92641 0.23822,-0.0729 0.29378,0.006 0.12342,0.17578 -0.17036,0.16955 3.16164,3.80604 7.40447,8.08108 4.24282,4.27505 10.68167,10.90258 14.30853,14.72785 11.95668,12.61069 12.77336,13.36055 7.59188,6.97084 -15.57953,-19.2125 -23.77247,-28.66846 -24.73054,-28.543 -0.42986,0.0563 -0.47967,0.005 -0.13882,-0.14325 0.38999,-0.16949 0.23685,-0.53726 -0.57486,-1.38042 -0.82122,-0.85307 -1.19421,-1.02106 -1.44684,-0.65161 -0.25267,0.36955 -0.31086,0.34348 -0.22586,-0.10123 0.1263,-0.66131 -6.37532,-8.44877 -6.82357,-8.17305 -0.15407,0.0948 -0.3194,-0.3401 -0.36732,-0.96636 -0.048,-0.62627 0.12222,-1.26748 0.37816,-1.42492 0.3031,-0.18643 0.35746,-0.11242 0.15583,0.21224 -0.24293,0.39119 -0.12726,0.4014 0.53732,0.0474 0.4658,-0.24809 0.8469,-0.63417 0.8469,-0.85797 0,-0.2238 0.17971,-0.29637 0.39934,-0.16128 0.21966,0.13509 0.39936,0.0457 0.39936,-0.19871 0,-0.24439 0.15935,-0.34633 0.35409,-0.22655 0.47571,0.2926 1.059,-0.57958 1.04451,-1.56189 -0.0107,-0.72438 -0.28184,-0.79486 -3.05824,-0.79486 h -3.04656 L 618.64622,71.310167 C 618.48937,55.13476 618.22628,40.380171 618.06157,38.522188 l -0.29942,-3.378154 -0.0574,2.815747 c -0.0731,3.585049 -1.40994,22.264194 -2.44382,34.145251 -0.43747,5.02749 -0.9041,10.392802 -1.03703,11.922905 -0.1349,1.553399 -0.0506,3.571829 0.19094,4.570447 0.42952,1.77609 0.78292,12.130836 0.42458,12.440956 -0.31328,0.27112 -13.16976,5.4434 -13.53043,5.4434 -0.18503,0 -0.55852,-0.2663 -0.82994,-0.59177 -0.58377,-0.70002 -1.26154,-0.42335 -0.94894,0.38734 0.11981,0.31075 -0.0542,0.95151 -0.38669,1.42391 -0.33246,0.47241 -0.52002,1.078 -0.41681,1.34577 0.27064,0.70184 -0.0833,0.90741 -8.23489,4.78216 -14.93804,7.10064 -23.56152,11.30356 -23.56152,11.48345 0,0.33561 5.273,-1.29217 18.39008,-5.67704 16.7478,-5.59855 20.11799,-6.80071 20.28008,-7.23399 0.0732,-0.1957 0.38358,-0.35581 0.68968,-0.35581 0.3061,0 0.85696,-0.4563 1.2241,-1.01399 0.38852,-0.59009 0.81572,-0.86656 1.02193,-0.66135 0.20122,0.20024 0.42165,23.78178 0.5101,54.56769 0.0857,29.81829 0.28594,59.62509 0.44498,66.23733 l 0.28917,12.02225 h -1.44288 c -0.79359,0 -2.35476,-0.35769 -3.46921,-0.79484 -2.24767,-0.8817 -6.12323,-1.05578 -8.38893,-0.3768 -0.76732,0.22997 -3.19216,0.57314 -5.38856,0.76259 -2.1964,0.18949 -5.23378,0.55609 -6.74965,0.81467 -1.93565,0.3302 -5.62144,0.38859 -12.37977,0.19606 -5.29302,-0.15076 -11.95979,-0.28865 -14.81512,-0.30638 -6.13075,-0.0381 -17.69707,0.69764 -19.9674,1.27012 -0.87855,0.22152 -2.18142,0.40704 -2.89528,0.41226 -1.28405,0.01 -1.29784,-0.0107 -1.29353,-1.8783 0.0156,-6.68366 -1.27453,-40.07412 -1.62388,-42.03318 -0.2344,-1.31424 -0.3702,-4.3002 -0.30184,-6.63546 0.1054,-3.5992 0.20797,-4.16379 0.67362,-3.70657 0.30215,0.29665 0.59373,1.40476 0.6479,2.46244 0.1429,2.78666 1.05785,8.07237 1.43774,8.30606 0.1789,0.11003 0.22685,0.45526 0.10663,0.76718 -0.12028,0.31191 0.059,2.4076 0.39829,4.65707 0.33937,2.24948 0.99267,7.1303 1.45179,10.84628 1.10346,8.93071 1.63113,11.23674 1.36415,5.96146 -0.35842,-7.08167 -1.77442,-21.77404 -2.4131,-25.03811 -0.34216,-1.74869 -0.616,-3.88924 -0.60848,-4.75679 0.007,-0.86754 -0.14793,-1.77107 -0.3454,-2.00783 -0.42674,-0.51176 -0.0623,-2.17756 0.4764,-2.17756 0.20703,0 0.26656,-0.1768 0.13239,-0.39288 -0.13961,-0.22482 0.0194,-0.29219 0.37241,-0.15747 0.36264,0.13847 0.71721,-0.0261 0.8613,-0.3997 0.13466,-0.34931 0.42498,-0.52431 0.64515,-0.38891 0.24461,0.15046 0.3011,-0.0648 0.14529,-0.5534 -0.20028,-0.62802 0.3215,-1.34226 2.43179,-3.32856 1.47772,-1.39093 4.5833,-4.34544 6.90126,-6.56557 2.31798,-2.22013 4.66381,-4.40502 5.2129,-4.8553 0.54909,-0.45028 0.8737,-0.82464 0.72131,-0.83191 -0.35112,-0.0168 -12.56106,8.85915 -13.89978,10.10434 -0.5491,0.51073 -1.71719,1.83235 -2.59578,2.93691 -1.18576,1.49081 -1.87182,2.01341 -2.66231,2.02809 -0.5857,0.0109 -1.12481,-0.1372 -1.19805,-0.32907 -0.24677,-0.64674 -24.25614,-16.11559 -24.55362,-15.81952 -0.0976,0.0972 2.01247,1.85223 4.68914,3.90014 2.67664,2.04791 5.818,4.48356 6.98073,5.41255 1.16273,0.929 2.3059,1.68908 2.54036,1.68908 0.23443,0 0.42626,0.1488 0.42626,0.33068 0,0.5218 4.44208,3.66025 4.83692,3.4174 0.19504,-0.11996 0.35462,-0.0647 0.35462,0.12293 0,0.18757 0.62897,0.56739 1.3977,0.84404 0.76876,0.27665 1.39773,0.63613 1.39773,0.79884 0,0.16271 -0.93206,0.59247 -2.07121,0.95501 -1.5155,0.48231 -2.21191,0.54292 -2.59577,0.22591 -0.55245,-0.45629 -0.56213,-0.43253 -0.67186,1.65123 -0.043,0.81554 0.15454,1.01708 1.10235,1.12475 0.63508,0.0722 1.28655,-0.0811 1.44768,-0.3406 0.17243,-0.27762 0.64224,-0.36148 1.14159,-0.20375 l 0.84851,0.26802 v 27.14037 27.14037 l -4.29298,0.67639 c -2.36113,0.37203 -6.45071,1.01306 -9.0879,1.42449 -11.05635,1.72492 -20.2628,1.86138 -59.50006,0.88197 -11.06318,-0.27616 -13.02042,-0.41811 -14.57619,-1.05723 -2.25251,-0.92537 -11.82457,-1.32068 -16.57292,-0.68447 -10.49618,1.40634 -17.57829,1.67308 -44.1741,1.66375 l -26.60281,-0.009 -0.25533,-11.22741 c -0.26226,-11.5315 -0.38778,-20.64856 -0.30065,-21.83395 0.0533,-0.72564 1.63213,-0.85718 1.66636,-0.13884 0.0108,0.22673 1.93814,1.84297 4.28297,3.59167 2.34481,1.74868 4.62723,3.47272 5.07204,3.83122 5.80239,4.67643 7.4848,5.95185 7.64315,5.79426 0.16299,-0.16221 -3.91894,-3.86133 -10.76903,-9.75895 -1.10079,-0.94776 -2.97324,-2.34185 -4.16095,-3.09797 -1.478,-0.94091 -2.08729,-1.56201 -1.93071,-1.96808 0.12885,-0.33418 -0.0411,-0.69636 -0.38901,-0.82925 -0.50272,-0.19198 -0.57817,-0.72582 -0.40499,-2.86632 0.41608,-5.14316 1.12601,-20.35916 0.95772,-20.52665 -0.2775,-0.27618 -2.39444,17.37397 -2.31564,19.3068 0.14592,3.57795 0.0604,3.90228 -1.19996,4.55091 -0.65893,0.3391 -1.20377,0.47783 -1.21075,0.30828 -0.007,-0.16955 -0.25317,0.007 -0.54708,0.39249 -0.44738,0.58668 -13.79678,7.43703 -17.01152,8.72959 -0.54909,0.22079 -0.8049,0.47408 -0.56847,0.56291 0.23643,0.0888 3.29145,-0.99023 6.78892,-2.39785 8.85084,-3.5622 9.00509,-3.63359 8.66191,-4.00943 -0.16838,-0.18439 -0.0826,-0.20728 0.19067,-0.0508 0.28091,0.1608 1.08964,-0.16555 1.86098,-0.75106 0.75027,-0.56953 1.42947,-0.89239 1.50936,-0.71751 0.17203,0.37669 -0.50531,32.84428 -0.68939,33.04476 -0.0695,0.0757 -0.99258,-0.0846 -2.05138,-0.35611 -2.13416,-0.54722 -24.5471,-1.05857 -61.62757,-1.40594 -25.43946,-0.23834 -31.42057,0.0474 -35.0577,1.67496 -2.26904,1.01535 -2.30534,1.01816 -6.73809,0.52419 -3.02264,-0.33685 -5.39998,-0.38195 -7.38792,-0.14013 -4.28252,0.52094 -19.54385,0.41363 -26.65205,-0.18737 -5.89015,-0.49802 -7.7942,-0.42144 -13.41844,0.53952 -0.43929,0.075 -2.1465,-0.10615 -3.79381,-0.40255 z"
       id="path3724"
       inkscape:connector-curvature="0"
       sodipodi:nodetypes="ccccscccccscccccccccccccsccccccccsccccccccccscccsccscsccccccsccccccsssccccscccscccccccccccccccccscsccscscccccccssccccsccscccscscccccccccccccccccccccscccccccsccccccccsscscscccccsccccsscscccccccccccccccccccccccccccsccscccc" />
  </g>
</svg>
